<svg id="constitution" enable-background="new 0 0 300 300" height="512" viewBox="0 0 300 300" width="512" xmlns="http://www.w3.org/2000/svg"><circle cx="182" cy="168" fill="#efefd2" r="90"/><path d="m238.066 75.639c-1.023 0-2.047-.391-2.828-1.172-1.562-1.561-1.562-4.094 0-5.656l8.484-8.486c1.562-1.562 4.094-1.562 5.656 0 1.562 1.561 1.562 4.094 0 5.656l-8.484 8.486c-.781.781-1.804 1.172-2.828 1.172z" fill="#4c241d"/><path d="m257.867 55.84c-1.023 0-2.047-.391-2.828-1.172-1.562-1.561-1.562-4.094 0-5.656l8.484-8.486c1.562-1.562 4.094-1.562 5.656 0 1.562 1.561 1.562 4.094 0 5.656l-8.484 8.486c-.781.781-1.804 1.172-2.828 1.172z" fill="#4c241d"/><path d="m267.359 76.646c-1.023 0-2.047-.391-2.828-1.172l-8.555-8.555c-1.562-1.562-1.562-4.094 0-5.656s4.094-1.562 5.656 0l8.555 8.555c1.562 1.562 1.562 4.094 0 5.656-.781.782-1.804 1.172-2.828 1.172z" fill="#4c241d"/><path d="m246.551 55.84c-1.023 0-2.047-.391-2.828-1.172l-8.484-8.486c-1.562-1.562-1.562-4.096 0-5.656 1.562-1.562 4.094-1.562 5.656 0l8.484 8.486c1.562 1.562 1.562 4.096 0 5.656-.781.781-1.805 1.172-2.828 1.172z" fill="#4c241d"/><path d="m76 78h-44v-25.64c0-10.14 8.22-18.36 18.36-18.36h25.64z" fill="#e7d1c4"/><path d="m76 82h-44c-2.211 0-4-1.791-4-4v-25.641c0-12.328 10.031-22.359 22.359-22.359h25.641c2.211 0 4 1.791 4 4v44c0 2.209-1.789 4-4 4zm-40-8h36v-36h-21.641c-7.918 0-14.359 6.441-14.359 14.359z" fill="#4c241d"/><path d="m48.615 34h147.25c13.33 0 24.135 10.805 24.135 24.135v207.865h-129.389c-12.488 0-22.611-10.123-22.611-22.611v-194.97c0-7.963-6.456-14.419-14.419-14.419z" fill="#fff"/><path d="m220 270h-129.391c-14.671 0-26.609-11.938-26.609-26.611v-194.971c0-5.744-4.672-10.418-10.418-10.418h-4.965c-2.211 0-4-1.791-4-4s1.789-4 4-4h147.25c15.512 0 28.133 12.621 28.133 28.135v207.865c0 2.209-1.789 4-4 4zm-151.238-232c2.043 2.965 3.238 6.555 3.238 10.418v194.971c0 10.261 8.348 18.611 18.609 18.611h125.391v-203.865c0-11.102-9.031-20.135-20.133-20.135z" fill="#4c241d"/><circle cx="185.679" cy="197.592" fill="#f53e28" r="13.264"/><path d="m185.68 214.855c-9.52 0-17.266-7.744-17.266-17.264s7.746-17.264 17.266-17.264 17.262 7.744 17.262 17.264-7.743 17.264-17.262 17.264zm0-26.527c-5.109 0-9.266 4.156-9.266 9.264s4.156 9.264 9.266 9.264c5.105 0 9.262-4.156 9.262-9.264s-4.157-9.264-9.262-9.264z" fill="#4c241d"/><path d="m260 230c0 19.882-16.118 36-36 36h-136c19.535 0 36-16.465 36-36z" fill="#e7d1c4"/><g fill="#4c241d"><path d="m224 270h-136c-2.211 0-4-1.791-4-4s1.789-4 4-4c17.348 0 32-14.654 32-32 0-2.209 1.789-4 4-4h136c2.211 0 4 1.791 4 4 0 22.057-17.945 40-40 40zm-112.332-8h112.332c16.289 0 29.777-12.236 31.75-28h-127.957c-1.184 11.311-7.316 21.4-16.125 28z"/><path d="m120 58h-32c-2.211 0-4-1.791-4-4s1.789-4 4-4h32c2.211 0 4 1.791 4 4s-1.789 4-4 4z"/><path d="m200 78h-112c-2.211 0-4-1.791-4-4s1.789-4 4-4h112c2.211 0 4 1.791 4 4s-1.789 4-4 4z"/><path d="m200 102h-112c-2.211 0-4-1.791-4-4s1.789-4 4-4h112c2.211 0 4 1.791 4 4s-1.789 4-4 4z"/><path d="m200 126h-112c-2.211 0-4-1.791-4-4s1.789-4 4-4h112c2.211 0 4 1.791 4 4s-1.789 4-4 4z"/><path d="m200 150h-112c-2.211 0-4-1.791-4-4s1.789-4 4-4h112c2.211 0 4 1.791 4 4s-1.789 4-4 4z"/><path d="m200 174h-112c-2.211 0-4-1.791-4-4s1.789-4 4-4h112c2.211 0 4 1.791 4 4s-1.789 4-4 4z"/><path d="m149.332 198h-61.332c-2.211 0-4-1.791-4-4s1.789-4 4-4h61.332c2.211 0 4 1.791 4 4s-1.789 4-4 4z"/></g></svg>